<mxfile host="app.diagrams.net" modified="2023-10-04T09:42:38.827Z" agent="Mozilla/5.0 (Windows NT 10.0; Win64; x64) AppleWebKit/537.36 (KHTML, like Gecko) Chrome/119.0.0.0 Safari/537.36 Edg/119.0.0.0" etag="RnslSkbYN-H7MVDVCk7t" version="22.0.2" type="github">
  <diagram name="Page-1" id="awjIvfAWneC6x8_VFzm_">
    <mxGraphModel dx="2066" dy="1145" grid="1" gridSize="10" guides="1" tooltips="1" connect="1" arrows="1" fold="1" page="1" pageScale="1" pageWidth="1169" pageHeight="827" math="0" shadow="0">
      <root>
        <mxCell id="0" />
        <mxCell id="1" parent="0" />
        <mxCell id="fDYu6ILV5QKD3DeEHDc2-1" value="WPREP" style="shape=umlFrame;whiteSpace=wrap;html=1;pointerEvents=0;" vertex="1" parent="1">
          <mxGeometry x="140" y="60" width="840" height="730" as="geometry" />
        </mxCell>
        <mxCell id="fDYu6ILV5QKD3DeEHDc2-2" value="Utilisateur" style="shape=umlActor;verticalLabelPosition=bottom;verticalAlign=top;html=1;outlineConnect=0;" vertex="1" parent="1">
          <mxGeometry x="50" y="330" width="30" height="60" as="geometry" />
        </mxCell>
        <mxCell id="fDYu6ILV5QKD3DeEHDc2-5" value="Utilisateur de &lt;br&gt;maintenance" style="shape=umlActor;verticalLabelPosition=bottom;verticalAlign=top;html=1;outlineConnect=0;" vertex="1" parent="1">
          <mxGeometry x="50" y="580" width="30" height="60" as="geometry" />
        </mxCell>
        <mxCell id="fDYu6ILV5QKD3DeEHDc2-7" value="" style="endArrow=open;endFill=1;endSize=12;html=1;rounded=0;entryX=0;entryY=0.5;entryDx=0;entryDy=0;exitX=0.5;exitY=0.5;exitDx=0;exitDy=0;exitPerimeter=0;" edge="1" parent="1" target="fDYu6ILV5QKD3DeEHDc2-8" source="fDYu6ILV5QKD3DeEHDc2-2">
          <mxGeometry width="160" relative="1" as="geometry">
            <mxPoint x="120" y="257" as="sourcePoint" />
            <mxPoint x="380" y="270" as="targetPoint" />
          </mxGeometry>
        </mxCell>
        <mxCell id="fDYu6ILV5QKD3DeEHDc2-8" value="Lancer la production d&#39;énergie&lt;br&gt;&lt;hr&gt;&lt;b&gt;extension points&lt;/b&gt;&lt;br&gt;À&amp;nbsp;travers une application mobile" style="ellipse;whiteSpace=wrap;html=1;" vertex="1" parent="1">
          <mxGeometry x="341.25" y="84" width="220" height="110" as="geometry" />
        </mxCell>
        <mxCell id="fDYu6ILV5QKD3DeEHDc2-9" value="L&#39;eau (de la mer, lac, rivière, etc...)" style="rounded=0;whiteSpace=wrap;html=1;" vertex="1" parent="1">
          <mxGeometry x="1000" y="101.5" width="140" height="75" as="geometry" />
        </mxCell>
        <mxCell id="fDYu6ILV5QKD3DeEHDc2-10" value="" style="endArrow=open;endFill=1;endSize=12;html=1;rounded=0;exitX=1;exitY=0.5;exitDx=0;exitDy=0;" edge="1" parent="1" target="fDYu6ILV5QKD3DeEHDc2-9" source="fDYu6ILV5QKD3DeEHDc2-8">
          <mxGeometry width="160" relative="1" as="geometry">
            <mxPoint x="650" y="295" as="sourcePoint" />
            <mxPoint x="1000" y="365" as="targetPoint" />
          </mxGeometry>
        </mxCell>
        <mxCell id="fDYu6ILV5QKD3DeEHDc2-11" value="Arrêter la production d&#39;énergie&lt;br&gt;&lt;hr&gt;&lt;b&gt;extension points&lt;/b&gt;&lt;br&gt;À&amp;nbsp;travers une application mobile" style="ellipse;whiteSpace=wrap;html=1;" vertex="1" parent="1">
          <mxGeometry x="341.25" y="500" width="220" height="110" as="geometry" />
        </mxCell>
        <mxCell id="fDYu6ILV5QKD3DeEHDc2-12" value="" style="endArrow=open;endFill=1;endSize=12;html=1;rounded=0;entryX=0;entryY=0.5;entryDx=0;entryDy=0;exitX=0.5;exitY=0.5;exitDx=0;exitDy=0;exitPerimeter=0;" edge="1" parent="1" source="fDYu6ILV5QKD3DeEHDc2-2" target="fDYu6ILV5QKD3DeEHDc2-11">
          <mxGeometry width="160" relative="1" as="geometry">
            <mxPoint x="70" y="330" as="sourcePoint" />
            <mxPoint x="340" y="335" as="targetPoint" />
          </mxGeometry>
        </mxCell>
        <mxCell id="fDYu6ILV5QKD3DeEHDc2-13" value="Faire varier la hauteur du système &lt;br&gt;(donc varier la production d&#39;énergie)&lt;br style=&quot;border-color: var(--border-color);&quot;&gt;&lt;hr style=&quot;border-color: var(--border-color);&quot;&gt;&lt;b style=&quot;border-color: var(--border-color);&quot;&gt;extension points&lt;/b&gt;&lt;br style=&quot;border-color: var(--border-color);&quot;&gt;À&amp;nbsp;travers une application mobile&amp;nbsp;" style="ellipse;whiteSpace=wrap;html=1;" vertex="1" parent="1">
          <mxGeometry x="690" y="165" width="240" height="160" as="geometry" />
        </mxCell>
        <mxCell id="fDYu6ILV5QKD3DeEHDc2-14" value="" style="endArrow=block;dashed=1;endFill=0;endSize=12;html=1;rounded=0;entryX=1;entryY=1;entryDx=0;entryDy=0;exitX=0;exitY=0.5;exitDx=0;exitDy=0;" edge="1" parent="1" source="fDYu6ILV5QKD3DeEHDc2-13" target="fDYu6ILV5QKD3DeEHDc2-8">
          <mxGeometry width="160" relative="1" as="geometry">
            <mxPoint x="867" y="388" as="sourcePoint" />
            <mxPoint x="530" y="358" as="targetPoint" />
          </mxGeometry>
        </mxCell>
        <mxCell id="fDYu6ILV5QKD3DeEHDc2-15" value="&quot;extend&quot;" style="text;html=1;strokeColor=none;fillColor=none;align=center;verticalAlign=middle;whiteSpace=wrap;rounded=0;" vertex="1" parent="1">
          <mxGeometry x="603.75" y="170" width="60" height="30" as="geometry" />
        </mxCell>
        <mxCell id="fDYu6ILV5QKD3DeEHDc2-16" value="Remplacer les composants internes (moteur, batterie, etc..)" style="ellipse;whiteSpace=wrap;html=1;" vertex="1" parent="1">
          <mxGeometry x="338.75" y="650" width="222.5" height="110" as="geometry" />
        </mxCell>
        <mxCell id="fDYu6ILV5QKD3DeEHDc2-17" value="" style="endArrow=open;endFill=1;endSize=12;html=1;rounded=0;entryX=0;entryY=0.5;entryDx=0;entryDy=0;exitX=0.5;exitY=0.5;exitDx=0;exitDy=0;exitPerimeter=0;" edge="1" parent="1" target="fDYu6ILV5QKD3DeEHDc2-16" source="fDYu6ILV5QKD3DeEHDc2-5">
          <mxGeometry width="160" relative="1" as="geometry">
            <mxPoint x="85" y="544" as="sourcePoint" />
            <mxPoint x="335" y="602" as="targetPoint" />
          </mxGeometry>
        </mxCell>
        <mxCell id="fDYu6ILV5QKD3DeEHDc2-19" value="Analyser la production et la&lt;br&gt;&amp;nbsp;qualité de l&#39;eau&lt;br&gt;&lt;hr&gt;&lt;b&gt;extension points&lt;/b&gt;&lt;br&gt;À&amp;nbsp;travers une application mobile" style="ellipse;whiteSpace=wrap;html=1;" vertex="1" parent="1">
          <mxGeometry x="332.5" y="210" width="235" height="125" as="geometry" />
        </mxCell>
        <mxCell id="fDYu6ILV5QKD3DeEHDc2-20" value="" style="endArrow=open;endFill=1;endSize=12;html=1;rounded=0;entryX=0;entryY=0.5;entryDx=0;entryDy=0;exitX=0.5;exitY=0.5;exitDx=0;exitDy=0;exitPerimeter=0;" edge="1" parent="1" source="fDYu6ILV5QKD3DeEHDc2-2" target="fDYu6ILV5QKD3DeEHDc2-19">
          <mxGeometry width="160" relative="1" as="geometry">
            <mxPoint x="80" y="370" as="sourcePoint" />
            <mxPoint x="358" y="254" as="targetPoint" />
          </mxGeometry>
        </mxCell>
        <mxCell id="fDYu6ILV5QKD3DeEHDc2-21" value="" style="endArrow=block;dashed=1;endFill=0;endSize=12;html=1;rounded=0;entryX=0.5;entryY=1;entryDx=0;entryDy=0;exitX=0.5;exitY=0;exitDx=0;exitDy=0;" edge="1" parent="1" source="fDYu6ILV5QKD3DeEHDc2-16" target="fDYu6ILV5QKD3DeEHDc2-11">
          <mxGeometry width="160" relative="1" as="geometry">
            <mxPoint x="672" y="682" as="sourcePoint" />
            <mxPoint x="550" y="610" as="targetPoint" />
          </mxGeometry>
        </mxCell>
        <mxCell id="fDYu6ILV5QKD3DeEHDc2-23" value="&quot;include&quot;" style="text;html=1;strokeColor=none;fillColor=none;align=center;verticalAlign=middle;whiteSpace=wrap;rounded=0;" vertex="1" parent="1">
          <mxGeometry x="460" y="610" width="60" height="30" as="geometry" />
        </mxCell>
        <mxCell id="fDYu6ILV5QKD3DeEHDc2-24" value="Produire de l&#39;eau potable" style="ellipse;whiteSpace=wrap;html=1;" vertex="1" parent="1">
          <mxGeometry x="338.75" y="358.5" width="220" height="110" as="geometry" />
        </mxCell>
        <mxCell id="fDYu6ILV5QKD3DeEHDc2-26" value="" style="endArrow=open;endFill=1;endSize=12;html=1;rounded=0;entryX=0;entryY=0.5;entryDx=0;entryDy=0;exitX=0.5;exitY=0.5;exitDx=0;exitDy=0;exitPerimeter=0;" edge="1" parent="1" source="fDYu6ILV5QKD3DeEHDc2-2" target="fDYu6ILV5QKD3DeEHDc2-24">
          <mxGeometry width="160" relative="1" as="geometry">
            <mxPoint x="75" y="370" as="sourcePoint" />
            <mxPoint x="340" y="303" as="targetPoint" />
          </mxGeometry>
        </mxCell>
        <mxCell id="fDYu6ILV5QKD3DeEHDc2-27" value="Mettre le module permettant de dessaler l&#39;eau récupérée de la mer.&amp;nbsp;" style="ellipse;whiteSpace=wrap;html=1;" vertex="1" parent="1">
          <mxGeometry x="702.5" y="450" width="215" height="106" as="geometry" />
        </mxCell>
        <mxCell id="fDYu6ILV5QKD3DeEHDc2-28" value="&quot;include&quot;" style="text;html=1;strokeColor=none;fillColor=none;align=center;verticalAlign=middle;whiteSpace=wrap;rounded=0;" vertex="1" parent="1">
          <mxGeometry x="603.75" y="430" width="60" height="30" as="geometry" />
        </mxCell>
        <mxCell id="fDYu6ILV5QKD3DeEHDc2-29" value="" style="endArrow=block;dashed=1;endFill=0;endSize=12;html=1;rounded=0;entryX=1;entryY=1;entryDx=0;entryDy=0;exitX=0;exitY=0.5;exitDx=0;exitDy=0;" edge="1" parent="1" source="fDYu6ILV5QKD3DeEHDc2-27" target="fDYu6ILV5QKD3DeEHDc2-24">
          <mxGeometry width="160" relative="1" as="geometry">
            <mxPoint x="707" y="552" as="sourcePoint" />
            <mxPoint x="585" y="480" as="targetPoint" />
          </mxGeometry>
        </mxCell>
      </root>
    </mxGraphModel>
  </diagram>
</mxfile>
